HIERARCHY
ROOT Hips
{
	OFFSET 0.000000 0.000000 0.000000
	CHANNELS 6 Xposition Yposition Zposition Xrotation Yrotation Zrotation
	JOINT LeftUpLeg_virtual
	{
		OFFSET 0.000000 0.000000 0.000000
		CHANNELS 3 Xrotation Yrotation Zrotation
		JOINT LeftUpLeg
		{
			OFFSET 10.205400 -3.823500 0.155100
			CHANNELS 3 Xrotation Yrotation Zrotation
			JOINT LeftLeg
			{
				OFFSET 0.708757 -12.982077 0.567790
				CHANNELS 3 Xrotation Yrotation Zrotation
				JOINT LeftFoot
				{
					OFFSET -0.708756 -10.717838 -2.184338
					CHANNELS 3 Xrotation Yrotation Zrotation
					JOINT LeftToeBase
					{
						OFFSET 0.108149 -7.191104 7.560241
						CHANNELS 3 Xrotation Yrotation Zrotation
						JOINT LeftToe_End
						{
							OFFSET 0.070230 0.081724 4.490308
							CHANNELS 3 Xrotation Yrotation Zrotation
							End Site
							{
								OFFSET 0 0 0
							}
						}
					}
				}
			}
		}
	}
	JOINT RightUpLeg_virtual
	{
		OFFSET 0.000000 0.000000 0.000000
		CHANNELS 3 Xrotation Yrotation Zrotation
		JOINT RightUpLeg
		{
			OFFSET -10.205400 -3.823500 0.005500
			CHANNELS 3 Xrotation Yrotation Zrotation
			JOINT RightLeg
			{
				OFFSET -0.708756 -12.982134 0.610632
				CHANNELS 3 Xrotation Yrotation Zrotation
				JOINT RightFoot
				{
					OFFSET 0.708754 -10.717769 -1.945823
					CHANNELS 3 Xrotation Yrotation Zrotation
					JOINT RightToeBase
					{
						OFFSET -0.108140 -7.191069 7.372968
						CHANNELS 3 Xrotation Yrotation Zrotation
						JOINT RightToe_End
						{
							OFFSET -0.070227 0.081735 4.479403
							CHANNELS 3 Xrotation Yrotation Zrotation
							End Site
							{
								OFFSET 0 0 0
							}
						}
					}
				}
			}
		}
	}
	JOINT Spine_virtual
	{
		OFFSET 0.000000 0.000000 0.000000
		CHANNELS 3 Xrotation Yrotation Zrotation
		JOINT Spine
		{
			OFFSET 0.000000 6.876099 0.125700
			CHANNELS 3 Xrotation Yrotation Zrotation
			JOINT Spine1
			{
				OFFSET 0.000000 5.730043 0.104720
				CHANNELS 3 Xrotation Yrotation Zrotation
				JOINT Spine1_split
				{
					OFFSET 0.000000 5.730043 0.104720
					CHANNELS 3 Xrotation Yrotation Zrotation
					JOINT Spine2
					{
						OFFSET 0.000000 5.730043 0.104720
						CHANNELS 3 Xrotation Yrotation Zrotation
						JOINT Neck_virtual
						{
							OFFSET 0.000000 0.000000 0.000000
							CHANNELS 3 Xrotation Yrotation Zrotation
							JOINT Neck
							{
								OFFSET 0.000000 10.314075 0.188496
								CHANNELS 3 Xrotation Yrotation Zrotation
								JOINT Head
								{
									OFFSET 0.000000 7.643700 -2.377400
									CHANNELS 3 Xrotation Yrotation Zrotation
									JOINT HeadTop_End
									{
										OFFSET 0.000000 43.788605 -13.619600
										CHANNELS 3 Xrotation Yrotation Zrotation
										End Site
										{
											OFFSET 0 0 0
										}
									}
								}
							}
						}
						JOINT LeftShoulder_virtual
						{
							OFFSET 0.000000 0.000000 0.000000
							CHANNELS 3 Xrotation Yrotation Zrotation
							JOINT LeftShoulder
							{
								OFFSET 2.196100 4.412489 0.087492
								CHANNELS 3 Xrotation Yrotation Zrotation
								JOINT LeftShoulder_split
								{
									OFFSET 2.196100 4.412489 0.087492
									CHANNELS 3 Xrotation Yrotation Zrotation
									JOINT LeftArm
									{
										OFFSET 8.771219 -2.981674 -0.026999
										CHANNELS 3 Xrotation Yrotation Zrotation
										JOINT LeftForeArm
										{
											OFFSET 8.512804 0.000000 -0.000000
											CHANNELS 3 Xrotation Yrotation Zrotation
											JOINT LeftHand
											{
												OFFSET 18.484802 0.000000 -0.000000
												CHANNELS 3 Xrotation Yrotation Zrotation
												End Site
												{
													OFFSET 0 0 0
												}
											}
										}
									}
								}
							}
						}
						JOINT RightShoulder_virtual
						{
							OFFSET 0.000000 0.000000 0.000000
							CHANNELS 3 Xrotation Yrotation Zrotation
							JOINT RightShoulder
							{
								OFFSET -2.196100 4.412496 0.070690
								CHANNELS 3 Xrotation Yrotation Zrotation
								JOINT RightShoulder_split
								{
									OFFSET -2.196100 4.412496 0.070690
									CHANNELS 3 Xrotation Yrotation Zrotation
									JOINT RightArm
									{
										OFFSET -8.771282 -2.981682 -0.094208
										CHANNELS 3 Xrotation Yrotation Zrotation
										JOINT RightForeArm
										{
											OFFSET -8.494598 0.000000 0.000000
											CHANNELS 3 Xrotation Yrotation Zrotation
											JOINT RightHand
											{
												OFFSET -18.483803 0.000000 0.000001
												CHANNELS 3 Xrotation Yrotation Zrotation
												End Site
												{
													OFFSET 0 0 0
												}
											}
										}
									}
								}
							}
						}
					}
				}
			}
		}
	}
}
MOTION
Frames: 8
Frame Time: 0.03333333
-0.271768 25.796032 0.779013 0.000000 0.000000 0.000000 6.729649 -52.782298 7.599981 -69.051382 15.617689 44.289610 56.953543 -20.833696 4.461885 0.984719 3.546411 -15.180454 -1.436381 -5.350736 0.454106 0.000000 0.000000 0.000000 4.218576 -52.426975 7.226157 -21.182816 3.461338 -38.094499 54.450360 14.009344 -7.425009 -37.307268 -11.860980 29.746205 1.968897 5.272824 2.149591 0.000000 0.000000 0.000000 8.788863 -50.438574 8.732447 12.598731 2.258485 -2.807457 4.456353 6.571226 -3.658956 0.471203 -2.585857 1.220250 0.000000 0.000000 0.000000 -4.382763 6.078012 -2.011880 0.803248 10.555023 -0.776941 -4.543896 23.846617 -1.811052 0.000000 0.000000 0.000000 -5.708573 6.173105 -2.372997 -1.228898 -10.151990 -4.183293 4.180234 -1.001076 -0.364909 -13.603133 1.848886 -43.605611 -22.837110 -27.667128 -15.688559 0.000000 0.000000 0.000000 -5.145824 5.793355 -2.442878 -2.393771 13.493930 0.608266 -2.479425 -4.457720 2.336523 1.021159 -14.155921 58.670109 -10.577437 44.532997 18.552998 0.000000 0.000000 0.000000 
-0.239750 25.796795 0.849520 0.000000 0.000000 0.000000 7.044972 -53.114720 7.633404 -68.806431 15.438119 44.597580 57.545703 -20.733053 4.464182 -0.576184 3.647158 -14.201339 -1.750285 -5.348723 0.578308 0.000000 0.000000 0.000000 4.620190 -52.155471 7.202386 -21.237478 4.161760 -37.979308 54.009506 14.261105 -7.498124 -37.032312 -11.496308 30.189450 2.251008 5.480170 2.061502 0.000000 0.000000 0.000000 9.110306 -50.863333 8.820189 12.558827 2.287565 -2.930289 4.521568 6.582643 -3.727425 0.530979 -2.402431 1.305777 0.000000 0.000000 0.000000 -4.389221 6.109057 -2.058289 0.490495 10.500869 -0.803497 -4.644521 23.919975 -1.775058 0.000000 0.000000 0.000000 -5.532783 6.211775 -2.422703 -1.227331 -10.231148 -4.118388 4.058288 -0.947617 -0.123232 -13.550905 1.938117 -43.315800 -22.818682 -27.521354 -15.720186 0.000000 0.000000 0.000000 -5.135742 5.800079 -2.575456 -2.284009 14.227285 0.844115 -1.904965 -4.841012 1.477793 1.256859 -14.521525 56.400215 -7.663577 40.845904 16.982630 0.000000 0.000000 0.000000 
-0.174071 25.779085 0.902393 0.000000 0.000000 0.000000 7.906855 -53.666470 8.040384 -68.062719 15.378842 45.119509 57.693331 -20.770112 4.158936 -2.375521 3.882485 -13.972526 -2.152208 -5.304895 1.053930 0.000000 0.000000 0.000000 5.177593 -52.078717 7.358164 -22.153509 4.843780 -37.833200 53.847418 14.358521 -7.547900 -35.955417 -10.850070 31.165972 2.349318 5.498126 2.147535 0.000000 0.000000 0.000000 9.561778 -51.335002 9.023672 12.500469 2.366440 -3.062871 4.695362 6.599609 -3.861780 0.377548 -2.217971 1.355493 0.000000 0.000000 0.000000 -4.283078 6.135002 -2.187156 0.096506 10.452773 -0.905186 -4.662319 23.982440 -1.837030 0.000000 0.000000 0.000000 -5.262120 6.216195 -2.589372 -1.227555 -10.092913 -4.013306 3.954020 -0.837983 0.067554 -13.957092 2.082843 -42.808511 -22.641847 -27.379694 -15.599218 0.000000 0.000000 0.000000 -5.069654 5.816665 -2.804125 -2.329784 15.007198 1.124018 -1.694305 -4.834683 0.731179 2.088009 -15.287746 54.414601 -1.666744 37.320693 13.549257 0.000000 0.000000 0.000000 
-0.127879 25.731415 0.911501 0.000000 0.000000 0.000000 8.911451 -54.195068 8.620360 -67.250316 15.378980 45.806524 57.248460 -21.016441 3.692825 -3.260603 4.088746 -14.712468 -2.514403 -5.209888 1.627564 0.000000 0.000000 0.000000 5.719281 -52.090001 7.651899 -23.564120 5.338937 -37.782878 54.519629 13.991503 -7.594895 -34.747983 -10.265629 32.309930 2.279930 5.276651 2.395487 0.000000 0.000000 0.000000 9.949530 -51.567375 9.297471 12.422050 2.475581 -3.179595 4.921547 6.593260 -4.057874 0.223327 -2.367568 1.305908 0.000000 0.000000 0.000000 -4.073076 6.119667 -2.397912 -0.309955 10.405038 -1.062061 -4.567585 23.983980 -2.004272 0.000000 0.000000 0.000000 -4.981517 6.172537 -2.853662 -1.228722 -9.707287 -3.810691 3.844434 -0.939184 0.234826 -14.825093 2.128952 -42.266170 -22.285912 -27.242609 -15.351900 0.000000 0.000000 0.000000 -4.960063 5.797140 -3.078471 -2.492988 15.781053 1.545210 -1.610896 -4.895225 0.244584 3.540350 -15.646013 52.964347 5.865757 34.857556 9.366882 0.000000 0.000000 0.000000 
-0.119786 25.676231 0.872974 0.000000 0.000000 0.000000 9.554301 -54.215146 9.038667 -66.651540 15.366010 46.514958 56.073664 -21.364652 3.137495 -2.426523 3.926943 -16.173818 -2.892909 -5.073546 2.036890 0.000000 0.000000 0.000000 5.897587 -51.939436 7.847945 -24.789495 5.370157 -37.868580 55.924670 12.895887 -7.671300 -33.931290 -10.143957 33.321532 1.975612 4.805370 2.661614 0.000000 0.000000 0.000000 9.967999 -51.170281 9.446433 12.338935 2.557006 -3.269698 5.155948 6.549784 -4.291841 0.042667 -2.834496 1.123729 0.000000 0.000000 0.000000 -3.838706 6.029279 -2.672990 -0.654704 10.326144 -1.269217 -4.398848 23.827914 -2.264998 0.000000 0.000000 0.000000 -4.747580 6.081130 -3.182504 -1.214390 -9.140751 -3.502509 3.716145 -1.200822 0.558218 -15.984600 1.912851 -41.947310 -21.773352 -27.256971 -15.047865 0.000000 0.000000 0.000000 -4.833094 5.718481 -3.346686 -2.640758 16.552887 2.185719 -1.793816 -5.141323 0.132061 5.506245 -15.001616 52.062342 13.834229 33.509215 4.928994 0.000000 0.000000 0.000000 
-0.166414 25.676668 0.743134 0.000000 0.000000 0.000000 9.577823 -53.357257 9.049612 -66.682181 15.208389 47.117415 54.100228 -21.603806 2.617680 0.216501 3.077339 -17.693060 -3.155804 -4.901279 2.182722 0.000000 0.000000 0.000000 5.724330 -51.178041 7.851014 -24.962284 4.810710 -38.023270 57.569868 11.140648 -7.795137 -34.030086 -10.606315 34.021654 1.508133 4.184657 2.773988 0.000000 0.000000 0.000000 9.696603 -49.851481 9.446082 12.294406 2.590090 -3.296444 5.386979 6.458866 -4.520519 -0.097584 -3.151057 1.057294 0.000000 0.000000 0.000000 -3.637789 5.880422 -2.966526 -0.958043 10.168796 -1.516573 -4.218674 23.374343 -2.604825 0.000000 0.000000 0.000000 -4.577732 5.928878 -3.515444 -1.177160 -8.500757 -3.085278 3.533034 -1.427043 1.102472 -17.267806 1.356818 -42.044336 -21.131002 -27.543791 -14.767842 0.000000 0.000000 0.000000 -4.735746 5.602012 -3.578145 -2.672059 17.310375 3.053357 -1.816319 -5.072732 -0.066244 7.777149 -12.984849 51.207728 21.204515 32.580795 0.738324 0.000000 0.000000 0.000000 
-0.259953 25.757147 0.501886 0.000000 0.000000 0.000000 8.999070 -51.365396 8.621586 -67.182813 14.771035 47.418646 51.715901 -21.731763 2.179198 3.783360 1.623755 -18.685422 -3.039954 -4.750586 1.965500 0.000000 0.000000 0.000000 5.583932 -49.412730 7.760490 -23.603715 3.513004 -38.068599 58.609710 8.929422 -7.957392 -35.321145 -11.648685 34.404110 1.263356 3.544731 2.679305 0.000000 0.000000 0.000000 9.266973 -47.601760 9.297831 12.327872 2.540703 -3.304024 5.645761 6.314178 -4.754823 -0.275471 -3.339747 0.987468 0.000000 0.000000 0.000000 -3.489454 5.703418 -3.228637 -1.331282 9.843756 -1.813288 -4.079059 22.571794 -2.978960 0.000000 0.000000 0.000000 -4.474915 5.751193 -3.807969 -1.125975 -7.929218 -2.586183 3.378749 -1.506758 1.772964 -18.655236 0.434069 -42.701964 -20.424583 -28.091330 -14.555546 0.000000 0.000000 0.000000 -4.624434 5.453454 -3.750798 -2.531038 17.896414 4.031453 -1.714304 -4.876772 -0.512767 10.421546 -9.204526 49.815237 27.111773 31.543303 -2.693775 0.000000 0.000000 0.000000 
-0.381258 25.926344 0.175543 0.000000 0.000000 0.000000 8.346039 -48.159377 8.056277 -67.674518 14.285405 47.038365 49.367573 -21.555249 1.762419 6.564579 0.048652 -18.734410 -2.317433 -4.657915 1.439251 0.000000 0.000000 0.000000 5.516793 -46.521767 7.562403 -20.799084 1.530892 -37.713152 58.302344 6.594561 -8.158953 -37.667237 -13.020020 34.526272 1.279801 2.970852 2.370331 0.000000 0.000000 0.000000 8.749381 -44.475036 8.973426 12.468368 2.389094 -3.333965 5.977485 6.170241 -4.988193 -0.448560 -3.332904 1.049669 0.000000 0.000000 0.000000 -3.382877 5.547517 -3.441002 -1.855595 9.254663 -2.143472 -3.998953 21.392994 -3.312166 0.000000 0.000000 0.000000 -4.365855 5.609825 -4.027816 -1.066801 -7.471447 -2.093012 3.140644 -1.545050 2.484584 -20.157724 -0.745916 -43.963735 -19.739254 -28.867200 -14.462579 0.000000 0.000000 0.000000 -4.457835 5.319872 -3.867643 -2.169131 18.021454 4.948027 -1.706941 -4.658526 -1.212129 13.288833 -4.047038 47.468896 30.898014 30.237043 -5.035751 0.000000 0.000000 0.000000 
